<svg width="25" height="23" viewBox="0 0 25 23" fill="none" xmlns="http://www.w3.org/2000/svg">
<path d="M24.2687 2.38159C23.3863 -2.51464 16.7441 4.02195 15.402 5.71202C14.3395 7.05414 12.6805 10.049 12.3388 10.4343C11.997 10.049 10.3442 7.05414 9.27551 5.71202C7.93961 4.01574 1.29739 -2.51464 0.415078 2.38159C0.147898 3.87283 0.694685 9.21022 1.16691 10.7325C2.01816 13.4913 5.50393 13.4975 5.89538 14.3301C2.67679 15.666 2.1735 18.2571 4.82044 20.643C8.72251 24.1723 11.4937 21.2582 12.345 17.1324C13.1962 21.2582 15.9674 24.1723 19.8695 20.643C22.5102 18.2571 22.007 15.666 18.7946 14.3301C19.1798 13.4913 22.6718 13.4851 23.523 10.7325C23.9891 9.21022 24.5421 3.87283 24.2749 2.38159H24.2687Z" fill="#1B1B1B"/>
</svg>