<svg xmlns="http://www.w3.org/2000/svg" width="24.001" height="24.001" viewBox="0 0 24.001 24.001">
  <g id="Group_21" data-name="Group 21" transform="translate(-1642.541 -3731.541)">
    <path id="Path_35" data-name="Path 35" d="M12,0A12,12,0,0,0,0,12H0A12,12,0,0,0,12,24h0A12,12,0,1,0,12,0m7.71,15.955a12.764,12.764,0,0,1-3.918,1.977,9.566,9.566,0,0,1-.839-1.358,8.277,8.277,0,0,0,1.324-.634c-.11-.081-.218-.165-.324-.252a9.163,9.163,0,0,1-7.836,0c-.1.083-.209.168-.319.25a8.325,8.325,0,0,0,1.321.631,9.575,9.575,0,0,1-.84,1.361A12.817,12.817,0,0,1,4.36,15.953,13.053,13.053,0,0,1,6.649,7.128a12.628,12.628,0,0,1,3.2-.991,8.886,8.886,0,0,1,.419.84,12,12,0,0,1,3.539,0,8.252,8.252,0,0,1,.409-.84,12.728,12.728,0,0,1,3.193.987,13.034,13.034,0,0,1,2.3,8.831" transform="translate(1642.541 3731.541)" fill="#1b1b1b"/>
    <path id="Path_36" data-name="Path 36" d="M12.517,15.24a1.572,1.572,0,0,0,0,3.123A1.485,1.485,0,0,0,13.909,16.8a1.473,1.473,0,0,0-1.392-1.561" transform="translate(1639.487 3727.357)"/>
    <path id="Path_37" data-name="Path 37" d="M19.6,15.24A1.572,1.572,0,1,0,21,16.8,1.482,1.482,0,0,0,19.6,15.24" transform="translate(1637.541 3727.357)"/>
    <rect id="Rectangle_10" data-name="Rectangle 10" width="24.001" height="24.001" transform="translate(1642.541 3731.541)" fill="none"/>
  </g>
</svg>
