<svg xmlns="http://www.w3.org/2000/svg" xmlns:xlink="http://www.w3.org/1999/xlink" width="24" height="24" viewBox="0 0 24 24">
  <defs>
    <clipPath id="clip-path">
      <rect id="Rectangle_12" data-name="Rectangle 12" width="24" height="24" fill="none"/>
    </clipPath>
  </defs>
  <g id="Group_26" data-name="Group 26" transform="translate(0 0)">
    <path id="Path_40" data-name="Path 40" d="M14.877,13.418l-3.213-4.6H9.949l3.983,5.7.5.716h0l3.409,4.876h1.714l-4.177-5.976Z" transform="translate(-2.757 -2.446)"/>
    <g id="Group_25" data-name="Group 25" transform="translate(0 0)">
      <g id="Group_24" data-name="Group 24" clip-path="url(#clip-path)">
        <path id="Path_41" data-name="Path 41" d="M12,0A12,12,0,1,0,24,12,12,12,0,0,0,12,0m2.556,18.458L11.11,13.443,6.8,18.458H5.681l4.934-5.735L5.681,5.542H9.444l3.263,4.748,4.086-4.748h1.115L13.2,11.011l5.117,7.447Z" transform="translate(0 0)" fill="#1b1b1b"/>
      </g>
    </g>
  </g>
</svg>
